Coordinates
version=1
nRows=29
nColumns=24
inDegrees=yes

Units are S.I. units (second, meters, Newtons, ...)
Angles are in degrees.

endheader
time	pelvis_tilt	pelvis_list	pelvis_rotation	pelvis_tx	pelvis_ty	pelvis_tz	hip_flexion_r	hip_adduction_r	hip_rotation_r	knee_angle_r	ankle_angle_r	subtalar_angle_r	mtp_angle_r	hip_flexion_l	hip_adduction_l	hip_rotation_l	knee_angle_l	ankle_angle_l	subtalar_angle_l	mtp_angle_l	lumbar_extension	lumbar_bending	lumbar_rotation
      1.64000000	     24.05961989	     -1.15454546	      3.37255728	     -0.55579244	      0.83817801	      0.00778971	    -41.71247819	      7.19970855	    -17.52352916	     -6.61564617	     32.21383224	     24.16017099	     35.03221640	     -5.15852996	      1.26247325	    -16.24476445	     -2.04919227	     16.49038067	     14.73557905	     48.58273753	    -39.80799885	      4.03215934	     -7.18738432
      1.64500000	     24.16405183	     -1.21986963	      3.23270760	     -0.55006576	      0.83786506	      0.00792410	    -41.93501200	      7.04972750	    -17.28212013	     -7.40048118	     32.20665205	     24.24845670	     35.10777538	     -5.22087521	      1.21124214	    -16.08199532	     -2.92427432	     16.12661988	     14.57145134	     48.57147230	    -39.89194225	      3.95212509	     -7.08553333
      1.65000000	     24.21491679	     -1.29263039	      3.11209456	     -0.54435113	      0.83753704	      0.00801664	    -42.05570379	      6.90043492	    -17.04188482	     -8.28136104	     32.23547582	     24.42336554	     35.36790712	     -5.20417220	      1.14589499	    -15.80369634	     -3.86551002	     15.72390623	     14.16326921	     48.59262505	    -39.92020117	      3.88833113	     -7.05933708
      1.65500000	     24.27043017	     -1.33236945	      3.06362306	     -0.53864335	      0.83726159	      0.00799335	    -42.18068772	      6.76929691	    -16.92772709	     -9.14735779	     32.15318326	     24.57436485	     35.95931513	     -5.17248907	      1.10477964	    -15.32535300	     -4.86177124	     15.21312470	     13.49181476	     48.70222704	    -39.95385413	      3.83621236	     -7.04188341
      1.66000000	     24.37882590	     -1.32909472	      2.95566089	     -0.53283305	      0.83715848	      0.00808680	    -42.37385272	      6.56884015	    -16.75348074	     -9.98246606	     31.81446363	     24.65443710	     37.61921714	     -5.22398192	      1.10740799	    -14.96188755	     -5.84636521	     14.63175457	     12.70280038	     49.24540404	    -40.03809594	      3.69870508	     -7.05348951
      1.66500000	     24.39983235	     -1.37959502	      2.85562392	     -0.52707215	      0.83701114	      0.00818872	    -42.38012714	      6.39708513	    -16.56491984	    -11.03999634	     31.70033911	     24.77543031	     37.87336153	     -5.10510101	      1.01853211	    -14.65677566	     -7.01699008	     14.23929986	     12.27919466	     49.28481156	    -40.03656298	      3.61100241	     -7.01422191
      1.67000000	     24.41353954	     -1.38854223	      2.88121597	     -0.52135240	      0.83689219	      0.00806822	    -42.38030667	      6.26893964	    -16.55180058	    -12.06241668	     31.48067972	     24.92644481	     38.54221014	     -4.96120749	      0.97567886	    -14.01956842	     -8.20540386	     13.74938071	     11.39144644	     49.36159545	    -40.02902493	      3.56411297	     -7.06165155
      1.67500000	     24.49596485	     -1.35090721	      2.81656119	     -0.51548365	      0.83698383	      0.00805356	    -42.44875380	      6.03792527	    -16.49807346	    -13.09749295	     30.92819090	     24.99423579	     40.92733436	     -4.96534510	      0.99560809	    -13.53953729	     -9.28185056	     13.22271812	     10.42992007	     49.84202362	    -40.08313175	      3.41990864	     -7.09453572
      1.68000000	     24.45128877	     -1.35963748	      2.81276172	     -0.50964685	      0.83693508	      0.00802472	    -42.32251067	      5.87798070	    -16.43509142	    -14.26186366	     30.62862327	     25.15980491	     41.22475405	     -4.70198871	      0.91703837	    -13.13271434	    -10.67711377	     13.00092554	      9.91356708	     49.84986713	    -40.00695844	      3.34415167	     -7.16374674
      1.68500000	     24.43844785	     -1.28176205	      2.92299719	     -0.50379476	      0.83699620	      0.00771822	    -42.21492360	      5.70293459	    -16.62749997	    -15.45146665	     30.10798977	     25.24847256	     42.53558846	     -4.55655252	      0.97120101	    -12.33996167	    -11.85799245	     12.61709063	      8.89650176	     49.80784862	    -39.96046802	      3.26820637	     -7.36020617
      1.69000000	     24.43778657	     -1.26832367	      2.92657018	     -0.49792047	      0.83717310	      0.00757707	    -42.06806011	      5.50154339	    -16.64797012	    -16.71994498	     29.44011528	     25.33900967	     45.22652722	     -4.42134224	      0.94213955	    -11.84271807	    -13.10278025	     12.43732719	      8.18346222	     49.72702568	    -39.93164891	      3.19022729	     -7.36769609
      1.69500000	     24.35904118	     -1.22685146	      2.98616542	     -0.49194203	      0.83727962	      0.00738033	    -41.80836079	      5.30079612	    -16.74855710	    -18.07892738	     28.90926848	     25.57377981	     45.56883036	     -4.17372317	      0.92768659	    -11.37059279	    -14.44575007	     12.43191458	      7.71649965	     49.67772019	    -39.80541922	      3.11118406	     -7.50722515
      1.70000000	     24.35123670	     -1.13725728	      3.07801266	     -0.48599624	      0.83756949	      0.00699472	    -41.58203343	      5.05166825	    -17.00396078	    -19.49002001	     28.06501515	     25.66036643	     48.73216553	     -4.11174739	      1.01068425	    -10.69372053	    -15.53337056	     12.34842895	      6.95837754	     49.15219415	    -39.76041852	      3.02887222	     -7.61392549
      1.70500000	     24.25738624	     -1.05258311	      3.22809307	     -0.48001835	      0.83775837	      0.00656103	    -41.21709487	      4.82933823	    -17.28265412	    -21.01934673	     27.40106214	     25.86202995	     49.18744602	     -3.91083129	      1.06820102	    -10.08200177	    -16.74321032	     12.43408849	      6.50085816	     49.04048940	    -39.62030358	      2.97906768	     -7.81281512
      1.71000000	     24.21408654	     -0.90313956	      3.30418093	     -0.47392067	      0.83814839	      0.00613431	    -40.87102950	      4.47612966	    -17.61308344	    -22.59628168	     26.36068991	     25.89538133	     52.55583278	     -3.91752771	      1.23465434	     -9.50411282	    -17.65359957	     12.54075808	      5.98223298	     48.27326435	    -39.52457873	      2.83715617	     -7.97663542
      1.71500000	     24.13038868	     -0.74713289	      3.44355242	     -0.46785823	      0.83850959	      0.00557651	    -40.42691159	      4.12880958	    -18.00762999	    -24.29143540	     25.38062311	     25.99754747	     54.39004709	     -3.88786369	      1.41240669	     -8.87851877	    -18.54350692	     12.72290387	      5.56035789	     47.71260484	    -39.39123437	      2.73183191	     -8.19842502
      1.72000000	     24.00016740	     -0.60681680	      3.58043966	     -0.46180727	      0.83884041	      0.00498087	    -39.86856528	      3.75989289	    -18.39441344	    -26.11898428	     24.45968913	     26.20833915	     54.88168350	     -3.81576297	      1.57375071	     -8.35258670	    -19.42737277	     12.95881860	      5.22659021	     47.59172572	    -39.20934173	      2.64568588	     -8.38510418
      1.72500000	     23.94392914	     -0.37302911	      3.67794484	     -0.45565822	      0.83936008	      0.00438534	    -39.37570423	      3.26836956	    -18.83587547	    -27.94223170	     23.19407736	     26.07200723	     58.22558359	     -3.96923701	      1.85927363	     -7.85797247	    -20.02376060	     13.20627052	      4.86637394	     46.78260072	    -39.10058308	      2.45585791	     -8.62467517
      1.73000000	     23.80086319	     -0.18891509	      3.81827185	     -0.44962674	      0.83979263	      0.00366345	    -38.71124347	      2.80805744	    -19.24520577	    -29.91102321	     21.99077956	     26.10618318	     59.28296761	     -4.02158830	      2.10174063	     -7.32547148	    -20.60766913	     13.46414240	      4.48244662	     46.43316262	    -38.91125381	      2.34671321	     -8.83957837
      1.73500000	     23.66582484	      0.04801733	      3.92619372	     -0.44357174	      0.84026466	      0.00295095	    -38.01052560	      2.25738910	    -19.66401755	    -31.95944204	     20.76913259	     25.88116242	     61.22119940	     -4.17740550	      2.40493820	     -6.85634927	    -20.99822952	     13.78750842	      4.36782235	     45.89842116	    -38.73309524	      2.17305498	     -9.05435058
      1.74000000	     23.50705645	      0.28788486	      4.02206333	     -0.43751707	      0.84072225	      0.00225588	    -37.24434127	      1.67893274	    -20.04446683	    -34.06722174	     19.56242588	     25.56281892	     62.49472604	     -4.32680212	      2.70419172	     -6.50732658	    -21.36098400	     14.15667427	      4.30784991	     45.47232691	    -38.52798139	      1.98914626	     -9.27345075
      1.74500000	     23.31865295	      0.52630075	      4.11058202	     -0.43151731	      0.84114059	      0.00155941	    -36.39817551	      1.07989545	    -20.38298533	    -36.24403632	     18.41530812	     25.13077654	     63.03787888	     -4.45700267	      2.99775441	     -6.25335810	    -21.69199288	     14.52720025	      4.26433816	     45.26867151	    -38.30028894	      1.80210498	     -9.49727863
      1.75000000	     23.12708880	      0.79417971	      4.16183313	     -0.42553457	      0.84157407	      0.00090354	    -35.51368635	      0.42909939	    -20.64756459	    -38.45613819	     17.40326078	     24.47649523	     63.31429052	     -4.66686189	      3.32937428	     -6.02683675	    -21.83667866	     14.91973273	      4.33217854	     45.15730053	    -38.07207533	      1.56826269	     -9.70218248
      1.75500000	     22.93138595	      1.05238239	      4.21911385	     -0.41960895	      0.84201620	      0.00024130	    -34.59652163	     -0.21004106	    -20.86663823	    -40.66107913	     16.39460894	     23.64199240	     63.47543685	     -4.89303246	      3.64296171	     -5.85974153	    -21.92451335	     15.26566334	      4.43931713	     45.04065381	    -37.84599395	      1.34622851	     -9.90991617
      1.76000000	     22.73553056	      1.30946724	      4.27070756	     -0.41373818	      0.84245649	     -0.00038511	    -33.65130225	     -0.84719711	    -21.04478818	    -42.86231176	     15.49829750	     22.63262357	     63.46907591	     -5.14050149	      3.94336278	     -5.76244360	    -21.95783933	     15.57229766	      4.63430664	     44.94914012	    -37.62614340	      1.11971549	    -10.10202509
      1.76500000	     22.49175383	      1.51354962	      4.32300191	     -0.40793490	      0.84283628	     -0.00099622	    -32.61776110	     -1.41089071	    -21.08718671	    -45.03072823	     14.75011901	     21.35023878	     63.27025561	     -5.33945645	      4.18724652	     -5.69075158	    -21.96862111	     16.00473426	      4.82489563	     44.78501867	    -37.35955202	      0.94320525	    -10.29378219
      1.77000000	     22.25470071	      1.70483215	      4.36231768	     -0.40219209	      0.84322434	     -0.00152921	    -31.56546002	     -1.94806972	    -21.07213897	    -47.16789373	     14.18310000	     19.88916967	     62.76980413	     -5.56100780	      4.40233772	     -5.68759417	    -21.93390491	     16.40852219	      5.12574709	     44.59015919	    -37.10682164	      0.76380537	    -10.45993913
      1.77500000	     22.03402084	      1.88227710	      4.40406894	     -0.39647105	      0.84360246	     -0.00200004	    -30.51874662	     -2.44663089	    -21.01569153	    -49.27073203	     13.93760083	     18.51843519	     60.09905234	     -5.78794642	      4.57184127	     -5.79910826	    -21.94373102	     16.93347575	      5.81331747	     43.53081953	    -36.87226108	      0.59427349	    -10.62520065
      1.78000000	     21.80769897	      2.03266794	      4.43275661	     -0.39083040	      0.84400227	     -0.00243728	    -29.43782193	     -2.89661264	    -20.88261384	    -51.29612176	     13.79072362	     16.89683183	     58.32271936	     -6.03445508	      4.72281842	     -5.89156125	    -21.86334502	     17.36145703	      6.26409678	     42.92243050	    -36.63929508	      0.44375047	    -10.76115808
